<?xml version="1.0" standalone="no"?>
<!DOCTYPE svg PUBLIC "-//W3C//DTD SVG 20010904//EN"
 "http://www.w3.org/TR/2001/REC-SVG-20010904/DTD/svg10.dtd">
<svg version="1.0" xmlns="http://www.w3.org/2000/svg"
 width="1024.000000pt" height="1024.000000pt" viewBox="0 0 1024.000000 1024.000000"
 preserveAspectRatio="xMidYMid meet">

<g transform="translate(0.000000,1024.000000) scale(0.100000,-0.100000)"
fill="#000000" stroke="none">
<path d="M0 5120 l0 -5120 5120 0 5120 0 0 5120 0 5120 -5120 0 -5120 0 0
-5120z m6513 2664 c9 -9 -1 -25 -108 -169 -53 -71 -130 -180 -170 -240 -40
-61 -80 -117 -89 -124 -14 -12 -142 -13 -829 -5 -447 5 -920 9 -1052 9 l-240
0 -43 65 c-60 92 -155 227 -239 343 -40 55 -73 103 -73 108 0 5 615 10 1398
12 768 1 1406 3 1418 5 11 1 24 -1 27 -4z m-3060 -77 c98 -149 390 -562 475
-672 133 -172 421 -566 671 -918 51 -73 123 -170 159 -217 160 -205 232 -306
228 -316 -3 -7 -37 -55 -76 -108 -83 -112 -149 -217 -213 -338 l-46 -87 -48
62 c-58 74 -137 185 -177 247 -16 25 -46 65 -66 90 -21 25 -96 126 -167 225
-272 377 -307 427 -484 675 -101 140 -221 309 -267 375 -47 66 -118 163 -157
215 -40 53 -128 179 -195 280 -68 102 -144 212 -170 245 -26 33 -71 96 -100
140 -29 44 -68 98 -87 121 -18 23 -33 44 -33 48 0 3 159 6 353 6 l352 -1 48
-72z m4012 46 c-9 -16 -61 -91 -117 -168 -55 -77 -127 -180 -161 -230 -104
-155 -470 -677 -596 -851 -159 -220 -259 -360 -336 -469 -51 -71 -114 -160
-141 -197 -27 -37 -85 -120 -129 -184 -44 -63 -114 -162 -155 -218 -41 -56
-111 -151 -154 -211 -44 -61 -132 -180 -195 -265 -64 -85 -124 -168 -134 -183
-10 -16 -40 -56 -68 -89 -27 -33 -72 -92 -99 -131 -79 -114 -80 -115 -93 -94
-20 31 -243 325 -286 376 -23 27 -41 57 -41 67 0 11 16 37 35 58 19 22 62 87
96 145 86 148 117 195 244 366 61 83 133 184 160 225 27 41 85 125 130 185 45
61 126 173 181 250 101 141 261 363 322 445 18 25 79 108 135 186 56 78 136
188 178 245 41 57 144 203 229 324 194 279 301 428 315 437 5 4 164 8 353 8
l343 0 -16 -27z m-2082 -732 l557 -1 0 -22 c0 -13 -32 -66 -71 -118 -38 -52
-92 -126 -119 -165 -27 -38 -67 -95 -89 -125 -23 -30 -67 -93 -98 -139 -32
-46 -100 -140 -152 -210 -93 -124 -155 -212 -257 -363 l-52 -76 -89 120 c-48
67 -128 173 -176 237 -48 64 -115 157 -149 206 -34 50 -111 158 -172 240 -60
83 -143 198 -182 256 -40 58 -80 111 -88 118 -9 8 -16 22 -16 31 0 17 17 18
298 15 163 -2 548 -3 855 -4z m1391 -844 l49 -4 -2 -79 c-1 -43 -5 -82 -9 -85
-4 -4 -31 -9 -60 -13 -47 -6 -55 -4 -77 18 -26 26 -29 41 -25 116 3 58 4 60
43 54 17 -2 54 -5 81 -7z m336 -84 c0 -112 -5 -123 -49 -123 -20 0 -52 3 -73
6 -43 7 -48 23 -40 119 5 72 3 70 110 74 l52 1 0 -77z m-3620 49 l45 -7 -1
-42 c-1 -55 -42 -118 -81 -126 -16 -3 -48 -3 -70 0 -36 5 -43 9 -48 35 -4 16
-17 36 -30 44 -13 8 -28 29 -34 46 -15 41 -14 46 7 51 27 7 162 6 212 -1z
m-306 -44 c3 -24 7 -61 8 -83 3 -40 3 -40 -36 -43 -48 -4 -93 14 -102 40 -6
19 3 105 13 121 2 4 28 7 58 7 l54 0 5 -42z m3174 -462 c14 -13 26 -40 29 -62
4 -33 1 -45 -22 -72 -52 -62 -121 -80 -182 -48 -35 18 -46 40 -37 70 9 29 81
133 96 140 26 11 93 -5 116 -28z m-2396 -9 c52 -40 89 -101 86 -142 -3 -25 -9
-32 -43 -43 -22 -8 -62 -12 -89 -9 -41 4 -55 11 -82 40 -36 39 -57 98 -47 135
7 28 52 51 100 52 21 0 46 -11 75 -33z m-1886 -1768 c45 -68 109 -172 144
-231 34 -60 65 -108 69 -108 7 0 9 3 161 250 55 91 111 175 123 187 21 22 33
23 185 27 89 3 162 2 162 -1 0 -4 -26 -40 -58 -82 -32 -42 -129 -193 -214
-336 -85 -143 -169 -282 -187 -310 l-32 -50 2 -325 1 -325 -142 -3 -143 -3 6
328 6 328 -83 125 c-46 69 -112 176 -146 239 -59 108 -91 160 -208 341 l-48
75 160 -1 160 -1 82 -124z m2752 116 c110 -26 189 -76 287 -184 l40 -44 -29
-21 c-16 -11 -61 -49 -100 -83 -39 -35 -74 -63 -79 -63 -4 0 -24 18 -44 41
-52 57 -104 81 -188 86 -118 8 -178 -27 -191 -108 -8 -47 19 -105 60 -130 33
-20 71 -33 226 -75 131 -36 196 -69 261 -133 43 -44 60 -70 77 -120 74 -220
-44 -470 -263 -559 -197 -79 -394 -35 -587 133 -49 42 -88 79 -88 83 1 4 22
24 48 45 26 20 78 66 116 102 38 36 70 64 72 62 1 -1 9 -18 19 -37 41 -83 143
-150 229 -150 123 0 230 114 195 207 -27 71 -76 97 -257 133 -125 25 -197 58
-266 121 -128 117 -162 304 -84 471 84 183 313 276 546 223z m1007 -700 l0
-715 -144 0 -143 0 6 35 c4 20 7 341 7 715 l0 680 137 0 137 0 0 -715z m1289
580 c-3 -71 -8 -136 -10 -144 -4 -12 -35 -13 -183 -8 l-178 6 -5 -197 c-3
-108 -4 -367 -3 -574 l1 -378 -135 0 -136 0 -1 478 c-1 262 -4 521 -8 575 l-8
97 -177 0 -176 0 0 93 c0 76 -4 100 -23 135 -12 23 -22 44 -22 45 0 1 241 2
535 2 l535 0 -6 -130z m456 27 c0 -60 3 -190 7 -289 l6 -180 251 4 c138 2 257
3 264 3 9 0 12 29 12 113 0 61 3 189 7 284 l6 171 134 1 133 2 -1 -538 c0
-296 3 -619 7 -718 l7 -180 -142 -1 -141 -1 -2 231 c-2 127 -3 260 -3 296 -1
60 -2 65 -23 64 -12 0 -132 -1 -267 -2 l-245 -2 0 -295 0 -295 -146 0 c-124 0
-145 2 -141 15 4 8 7 332 8 720 l1 705 134 0 134 0 0 -108z m-3902 -320 c111
-224 219 -443 239 -487 19 -44 53 -105 73 -135 21 -30 60 -104 89 -165 28 -60
65 -130 81 -155 17 -26 30 -50 30 -54 0 -3 -75 -5 -167 -4 l-166 3 -51 118
-51 119 -179 -4 -178 -3 6 45 c3 25 27 88 54 140 46 93 48 95 92 106 43 11 45
13 42 45 -3 32 -83 182 -104 195 -16 10 -37 -23 -124 -190 -43 -83 -94 -178
-114 -211 -20 -33 -46 -82 -57 -110 -12 -27 -44 -98 -72 -156 l-51 -106 -157
5 c-87 2 -159 5 -161 7 -1 1 21 44 49 96 46 85 527 1029 624 1226 22 45 42 82
45 82 3 0 96 -183 208 -407z"/>
<path d="M5256 6699 c4 -7 44 0 44 7 0 2 -11 3 -24 2 -14 -1 -23 -5 -20 -9z"/>
<path d="M5302 6660 c0 -14 2 -19 5 -12 2 6 2 18 0 25 -3 6 -5 1 -5 -13z"/>
<path d="M4607 6659 c7 -7 15 -10 18 -7 3 3 -2 9 -12 12 -14 6 -15 5 -6 -5z"/>
<path d="M5330 6589 c0 -5 5 -7 10 -4 6 3 10 8 10 11 0 2 -4 4 -10 4 -5 0 -10
-5 -10 -11z"/>
<path d="M5314 6258 c2 -7 11 -12 21 -10 9 2 15 -1 11 -6 -3 -5 1 -9 9 -9 11
0 12 3 3 14 -6 8 -17 12 -24 9 -7 -3 -15 -1 -18 5 -2 5 -3 4 -2 -3z"/>
<path d="M5260 6179 c0 -5 5 -7 10 -4 6 3 10 8 10 11 0 2 -4 4 -10 4 -5 0 -10
-5 -10 -11z"/>
<path d="M5276 6109 c2 -4 -4 -10 -13 -12 -15 -4 -14 -5 3 -6 12 0 26 5 32 12
8 10 6 13 -8 13 -10 0 -17 -3 -14 -7z"/>
<path d="M5246 6043 c-6 -14 -5 -15 5 -6 7 7 10 15 7 18 -3 3 -9 -2 -12 -12z"/>
</g>
</svg>
